<svg id="Layer_1" data-name="Layer 1" xmlns="http://www.w3.org/2000/svg" xmlns:xlink="http://www.w3.org/1999/xlink" viewBox="0 0 566.93 99.21"><defs><style>.cls-1{fill:none;}.cls-2{clip-path:url(#clip-path);}.cls-3,.cls-4{fill:#fff;}.cls-4{font-size:84.01px;font-family:Volte-Regular3, Volte ;}.cls-5,.cls-6{font-family:Volte-Regular, Volte;}.cls-5{letter-spacing:-0.03em;}</style><clipPath id="clip-path"><rect class="cls-1" x="68.92" y="3.53" width="98.91" height="91.14"/></clipPath></defs><title>Artboard 1</title><g id="Artwork_10" data-name="Artwork 10"><g class="cls-2"><g class="cls-2"><path class="cls-3" d="M112,10.27a18.93,18.93,0,0,0,6.23,10.52A26.51,26.51,0,0,0,112,10.27m10.75,18.31-5.6-4.15a22.39,22.39,0,0,1-8.63-13.58l-.81-4a21.44,21.44,0,0,0-4.51-2.11l1.4,6.93a26.46,26.46,0,0,0,10.16,16l5.61,4.15a13.05,13.05,0,0,1-15.56,21l-6.2-4.6a52.45,52.45,0,0,1-20.24-32l-1-5.1a27.31,27.31,0,0,0-3.29,4l.38,1.9A56.39,56.39,0,0,0,96.21,51.35l6.2,4.61a17,17,0,1,0,20.32-27.38m-9,12.09-5.6-4.16A37.44,37.44,0,0,1,93.75,13.83l-2-10a25.2,25.2,0,0,0-4.34,1L89.19,14a41.42,41.42,0,0,0,16,25.3l6.21,4.61a2,2,0,1,0,2.38-3.21m4.48-6-5.6-4.16a30,30,0,0,1-11.52-18.13L99.49,4.26a1.66,1.66,0,0,1,0-.44,24.37,24.37,0,0,0-3.79-.29h-.4l1.94,9.6a33.9,33.9,0,0,0,13.05,20.55l5.6,4.16a5.52,5.52,0,1,1-6.58,8.87l-6.21-4.61A44.92,44.92,0,0,1,85.73,14.65L84.06,6.19a24.8,24.8,0,0,0-3.64,2.2l1.39,7a48.9,48.9,0,0,0,18.88,29.88l6.21,4.61a9.52,9.52,0,1,0,11.34-15.29m49.58-2.79c0-14.78-10.68-28.31-26.75-28.31a22.24,22.24,0,0,0-14,4.67,3.84,3.84,0,0,0,1.13,1.31l5.6,4.16A35.47,35.47,0,0,1,147.62,36a1.76,1.76,0,0,1-3.47.62A32,32,0,0,0,131.7,16.5l-5.61-4.16a7.37,7.37,0,0,1-1.67-1.72,24.36,24.36,0,0,0-2.55,3.22,11.07,11.07,0,0,0,1.84,1.71,1.77,1.77,0,1,1-2.1,2.84A14.69,14.69,0,0,1,120,17a27.5,27.5,0,0,0-1.57,4l.77.6,5.6,4.15a20.57,20.57,0,0,1-24.52,33l-6.2-4.6A60,60,0,0,1,71.43,19.71a30.48,30.48,0,0,0-2.51,12.13v.23c-.07,2.7,0,26.11,29.1,49.32a1.16,1.16,0,0,1,.07-.31A1.75,1.75,0,0,1,100.31,80a39.44,39.44,0,0,0,16.38,1.7,1.76,1.76,0,0,1,.37,3.51,42.74,42.74,0,0,1-15.74-1.24,140.28,140.28,0,0,0,17,10.74h0q2.73-1.47,5.26-3c-1.54.34-3.1.62-4.68.82a1.76,1.76,0,0,1-.45-3.5,47.12,47.12,0,0,0,19.27-6.88h0a100.4,100.4,0,0,0,12-11h0c.2-.26.4-.52.59-.79a46.57,46.57,0,0,0,5.46-9.47A1.77,1.77,0,0,1,158.2,60l.26.14q1.51-2.34,2.71-4.58a1.74,1.74,0,0,1-1.6.4,1.77,1.77,0,0,1-1.29-2.14,47.43,47.43,0,0,0-.29-24,1.77,1.77,0,0,1,.29-1.52,1.79,1.79,0,0,1,.95-.65,1.76,1.76,0,0,1,2.16,1.24,50.89,50.89,0,0,1,.37,25.59c6.1-11.82,6.1-20.73,6.06-22.33v-.23M142.56,53.7a31.75,31.75,0,0,0,2.07-10.39,1.77,1.77,0,0,1,3.53.11A35.47,35.47,0,0,1,145.86,55a1.76,1.76,0,1,1-3.3-1.25M127.21,22.54a1.76,1.76,0,0,1,2.1-2.83,28.12,28.12,0,0,1,8,35.91,1.76,1.76,0,0,1-3.1-1.67,24.62,24.62,0,0,0-7-31.41m-3.67,41.92a1.72,1.72,0,0,1,.59-.51A24.18,24.18,0,0,0,130,59.58a1.76,1.76,0,1,1,2.5,2.49,27.92,27.92,0,0,1-6.73,5,1.76,1.76,0,0,1-2.24-2.61M79.65,48.52a1.76,1.76,0,0,1-2.48-.28,66.18,66.18,0,0,1-4.72-6.66,1.77,1.77,0,0,1,.09-2,2.07,2.07,0,0,1,.48-.45,1.77,1.77,0,0,1,2.43.57A64.9,64.9,0,0,0,79.92,46a1.76,1.76,0,0,1-.27,2.48m2.73,3.37a1,1,0,0,1,.16-.19,1.77,1.77,0,0,1,2.49,0,65.13,65.13,0,0,0,6.69,5.72L97.93,62a24.63,24.63,0,0,0,19.53,4.34,1.76,1.76,0,1,1,.7,3.45,28.09,28.09,0,0,1-22.33-5l-6.21-4.6a67.66,67.66,0,0,1-7.06-6,1.76,1.76,0,0,1-.18-2.31m9,19-6.2-4.61a1.76,1.76,0,1,1,2.1-2.83l6.2,4.6a32.13,32.13,0,0,0,44.9-6.64c.36-.48.7-1,1-1.47a1.76,1.76,0,1,1,2.94,1.94c-.36.55-.74,1.1-1.14,1.63a35.67,35.67,0,0,1-49.83,7.38m45.72,6.92A43.24,43.24,0,0,1,125,83.57a1.76,1.76,0,0,1-1.92-2.74,1.71,1.71,0,0,1,.91-.64,39.64,39.64,0,0,0,11.07-5.3,1.77,1.77,0,0,1,2,2.91M147.21,68a42.32,42.32,0,0,1-4,4.71,1.76,1.76,0,1,1-2.5-2.48,40.34,40.34,0,0,0,3.71-4.33,39.67,39.67,0,0,0-6.78-54.31,1.77,1.77,0,0,1-.3-2.42l0-.06a1.76,1.76,0,0,1,2.48-.26A43.19,43.19,0,0,1,147.21,68"/></g></g></g><text class="cls-4" transform="translate(180.01 75.42)">Med<tspan class="cls-5" x="167.85" y="0">L</tspan><tspan class="cls-6" x="210.19" y="0">og</tspan></text></svg>